<?xml version="1.0" encoding="iso-8859-1"?>
<!-- Generator: Adobe Illustrator 19.2.0, SVG Export Plug-In . SVG Version: 6.00 Build 0)  -->
<svg version="1.1" xmlns="http://www.w3.org/2000/svg" xmlns:xlink="http://www.w3.org/1999/xlink" x="0px" y="0px"
	 viewBox="0 0 76.262 75.848" style="enable-background:new 0 0 76.262 75.848;" xml:space="preserve">
<g id="Olivetti_x5F_machines">
	<path style="fill-rule:evenodd;clip-rule:evenodd;" d="M37.475,0.042c6.117-0.326,11.684,1.309,15.968,3.072
		c4.497,1.853,8.327,4.449,11.434,7.556c3.282,3.282,5.725,6.607,7.808,11.183c1.993,4.378,3.515,9.485,3.575,15.413
		c0.062,6.075-1.317,11.406-3.273,15.766c-1.973,4.396-4.424,8.2-7.605,11.383c-4.68,4.682-10.628,8.322-18.234,10.276
		c-2.595,0.666-5.468,1.158-8.311,1.158c-12.401,0.002-20.851-4.41-27.401-10.628c-3.233-3.068-5.849-6.688-7.908-11.081
		C1.501,49.819,0.001,44.719,0,38.676c0-6.204,1.271-11.336,3.325-15.715c4.116-8.78,10.069-14.91,18.787-19.191
		c3.088-1.517,6.72-2.752,10.88-3.375C34.455,0.176,35.99,0.121,37.475,0.042z M52.184,27.595c1.465-1.874,3.217-3.983,2.972-7.405
		c-0.133-1.851-0.832-3.615-1.461-5.339c-1.537-4.218-3.471-7.674-5.792-11.232c-0.477-0.729-1.056-1.468-1.864-1.562
		c-0.711-0.082-1.604,0.877-1.763,1.461c-0.193,0.712-0.046,1.872-0.051,2.67c-0.033,6.299-0.01,13.572,0.151,19.393
		c0.345,0,0.405-0.407,0.555-0.604c0.734-0.981,2.135-1.881,3.828-1.512c1.83,0.399,3.141,2.32,2.669,4.735
		C51.782,28.233,52.002,27.826,52.184,27.595z M38.785,15.102c-1.099-1.679-3.257-2.733-5.238-3.677
		c-2.121-1.011-4.4-1.928-6.699-2.619c-2.532-0.763-5.294-1.556-8.16-1.864c-0.689,0.242-1.194,0.648-1.158,1.512
		c0.026,0.632,0.668,1.223,1.158,1.712c2.976,2.977,5.725,5.876,8.613,8.765c0.511,0.511,0.901,1.041,1.36,1.562
		c0.67,0.76,1.579,1.448,2.316,2.217c0.376,0.391,0.739,0.788,1.108,1.158c0.37,0.37,0.701,0.906,1.26,0.957
		c-1.146-3.766,2.807-6.263,5.591-4.332c0.577,0.4,0.748,1.03,1.359,1.41C40.194,19.374,39.879,16.774,38.785,15.102z
		 M60.847,39.129c1.841-1.05,3.093-2.919,4.131-4.986c1.859-3.701,3.24-7.731,4.281-12.089c0.218-0.909,0.547-1.845,0.604-2.67
		c0.081-1.154-0.526-1.875-1.511-1.813c-0.984,0.062-1.826,1.223-2.469,1.864c-2.104,2.102-4.206,4.108-6.245,6.044
		c-1.43,1.357-2.812,2.712-4.131,4.029c-1.029,1.03-2.14,2.016-3.123,3.022c-0.331,0.341-0.752,0.688-0.906,1.158
		c2.03-0.507,3.838,0.202,4.584,1.561c0.759,1.082,0.533,3.099-0.252,3.979c-0.382,0.491-1.038,0.709-1.36,1.26
		C56.885,40.349,59.093,40.13,60.847,39.129z M26.344,32.128c1.304,0,3.3,0.251,4.332-0.101c0.831-0.284,1.613-1.308,1.511-2.418
		c-0.108-1.18-1.379-2.08-2.115-2.771c-0.901-0.846-1.668-1.61-2.619-2.267c-1.927-1.329-3.762-3.008-6.8-2.972
		c-0.99,0.012-1.934,0.205-2.82,0.453c-1.64,0.458-3.281,1.096-4.735,1.712c-0.734,0.312-1.51,0.635-2.065,1.159
		c2.183,0.136,3.927,1.325,4.029,3.375c0.056,1.095-0.391,2.067-0.856,2.619c-0.358,0.424-0.945,0.598-1.208,1.158
		C17.084,32.3,21.939,32.128,26.344,32.128z M37.929,28.904c2,0.064,2.851-1.769,2.469-4.181c-0.064-0.003-0.07-0.065-0.151-0.051
		c-0.013,0.072-0.083,0.085-0.101,0.151c-0.604,0.956-1.542,2.02-2.973,2.166c-0.63,0.064-1.288-0.169-1.913-0.151
		C35.926,27.709,36.562,28.86,37.929,28.904z M5.037,27.997c-0.485,0.292-1.061,0.631-1.662,1.008
		c-0.773,0.485-1.625,0.887-1.562,1.914c0.111,1.784,2.475,1.311,4.685,1.31c1.349-0.001,2.707,0.099,3.476-0.151
		c-0.16-0.416-0.61-0.489-0.906-0.755c-0.793-0.713-1.262-1.707-1.159-3.325c0.088-0.788,0.704-1.308,0.756-1.964
		c-0.033,0-0.067,0-0.101,0C7.324,26.585,6.373,27.196,5.037,27.997z M44.578,28.451c-0.051,0-0.102,0-0.151,0
		c-0.003,0.063-0.064,0.069-0.051,0.15c-0.464,2.185,0.381,3.924,2.217,3.879c0.864-0.021,1.28-0.547,1.814-1.008
		c0.406-0.351,0.949-0.67,0.957-1.108C47.129,31.008,45.322,29.919,44.578,28.451z M46.391,37.114
		c-0.104-1.018-0.549-2.091-1.007-2.921c-0.965-1.751-2.422-3.128-4.382-3.829c-3.41-1.219-6.927,0.123-8.815,1.915
		c-1.291,1.225-2.429,2.904-2.619,5.087c-0.39,4.464,2,7.095,5.189,8.613C41.285,48.231,47.038,43.382,46.391,37.114z
		 M49.514,35.401c-0.886,0.856-2.236,1.514-2.166,3.123c0.084,1.917,2.234,2.467,4.433,2.116c-0.155-0.41-0.591-0.438-0.906-0.655
		c-0.855-0.588-1.573-1.704-1.511-3.123c0.024-0.541,0.352-1.013,0.201-1.461C49.548,35.401,49.531,35.401,49.514,35.401z
		 M17.177,50.311c3.235-3.234,6.635-6.209,9.772-9.571c0.485-0.519,1.411-1.141,1.611-1.661c0.257-0.664,0.108-1.485,0-2.116
		c-0.587-1.457-2.948-1.296-4.835-1.209c-4.337,0.202-8.288,0.655-10.477,3.375c-0.956,1.188-1.638,2.715-2.317,4.181
		c-0.69,1.488-1.485,3.007-1.863,4.635c0.371,0.137,0.515-0.254,0.705-0.403c1.561-1.232,4.179-1.019,5.288,0.755
		c0.568,0.908,0.691,2.297,0.403,3.426C16.144,51.446,16.662,50.825,17.177,50.311z M31.431,45.375
		c-0.247-0.626-0.733-1.012-1.41-1.209c-0.846-0.166-1.477,0.094-2.015,0.453c-0.774,0.519-1.442,1.335-2.115,2.115
		c-0.661,0.767-1.333,1.431-1.965,2.267c-1.104,1.463-2.622,3.531-2.921,5.591c-0.376,2.588,0.656,4.6,1.41,6.599
		c0.279,0.741,0.598,1.476,0.906,2.165c0.319,0.711,0.526,1.521,1.108,1.965c0.188-2.013,1.108-3.514,2.871-3.878
		c1.29-0.268,2.315,0.201,2.972,0.755c0.453,0.382,0.656,0.972,1.158,1.26C31.625,57.596,31.558,50.962,31.431,45.375z
		 M57.321,54.845c2.991-0.689,5.686-1.899,8.109-3.073c2.411-1.167,4.801-2.733,7.002-4.181c0.714-0.47,1.795-0.952,1.763-1.964
		c-0.055-1.718-2.31-1.36-4.231-1.36c-6.45,0-11.798-0.083-17.68,0.101c-2.189,0.069-4.37-0.172-6.396-0.05
		c-1.384,0.083-2.544,1.581-1.914,3.173c0.246,0.624,0.964,1.226,1.511,1.764c0.608,0.596,1.178,1.143,1.713,1.611
		c1.241,1.087,2.209,2.032,3.878,2.72c-0.196-0.646-0.51-1.012-0.654-1.662c-0.38-1.709,0.536-3.384,1.964-4.029
		c1.39-0.629,3.193-0.217,4.08,0.654c1.764,1.733,1.005,4.724-0.957,5.742c-0.451,0.234-0.921,0.232-1.359,0.604
		C55.177,55.373,56.316,55.076,57.321,54.845z M44.83,65.975c2.84,1.165,5.694,1.959,9.016,2.721c1.073,0.246,3,0.913,3.929,0.302
		c1.82-1.196-0.771-3.138-1.562-3.929c-5.098-5.098-10.106-10.106-15.11-15.11c-0.843-0.843-1.606-1.839-2.72-2.317
		c-0.274-0.097-0.707-0.031-1.059-0.051c-0.558,0.164-1.024,0.421-1.41,0.756c-0.559,0.641-0.604,1.641-0.604,2.82
		c0.001,4.772,0.568,9.459,3.123,11.435c0.765,0.461,1.319,1.132,2.367,1.31c-0.181-0.709-0.538-1.068-0.654-1.662
		c-0.337-1.721,0.491-3.155,1.662-3.828c2.474-1.423,5.644,0.469,5.39,3.375c-0.18,2.057-1.84,3.027-3.828,3.324
		C43.676,65.583,44.303,65.76,44.83,65.975z M11.787,53.786c-0.816-0.045-1.437-0.417-1.965-0.705
		c-0.727-0.616-1.133-1.553-1.41-2.619c-0.05,0-0.101,0-0.151,0c-0.395,0.738-0.656,1.977-0.957,3.274
		c-0.345,1.491-0.774,2.685-0.654,4.029c1.323,2.414,3.515-0.563,4.433-1.41c0.811-0.969,1.951-1.607,2.568-2.771
		C13.073,53.571,12.438,53.823,11.787,53.786z M31.331,66.278c-0.073,0.028-0.123,0.079-0.151,0.151
		c-0.62,0.986-1.66,2.024-3.174,2.015c-1.003-0.007-1.681-0.594-2.468-0.806c0.621,1.491,1.686,3.156,2.619,4.533
		c0.315,0.465,0.628,1.18,0.957,1.46c0.708,0.604,2.174,0.298,2.367-0.704c0.057-2.09,0.142-4.642-0.051-6.649
		C31.397,66.278,31.364,66.278,31.331,66.278z"/>
</g>
<g id="Layer_1">
</g>
</svg>
